<mxfile host="app.diagrams.net" modified="2022-10-25T08:54:36.779Z" agent="5.0 (Macintosh; Intel Mac OS X 10_15_7) AppleWebKit/537.36 (KHTML, like Gecko) Chrome/106.0.0.0 Safari/537.36" etag="lexf9McEw9mpYDemFo7F" version="20.0.4" type="github" pages="2">
  <diagram id="2Fg05KZtVPX66hX_BzW0" name="学生眉毛">
    <mxGraphModel dx="998" dy="2976" grid="1" gridSize="10" guides="1" tooltips="1" connect="1" arrows="1" fold="1" page="1" pageScale="1" pageWidth="827" pageHeight="1169" math="0" shadow="0">
      <root>
        <mxCell id="0" />
        <mxCell id="1" parent="0" />
        <mxCell id="rn8qXHYigFgZDkmgaIk9-7" style="edgeStyle=orthogonalEdgeStyle;rounded=0;orthogonalLoop=1;jettySize=auto;html=1;exitX=0.5;exitY=1;exitDx=0;exitDy=0;exitPerimeter=0;" parent="1" source="rn8qXHYigFgZDkmgaIk9-2" target="rn8qXHYigFgZDkmgaIk9-6" edge="1">
          <mxGeometry relative="1" as="geometry" />
        </mxCell>
        <mxCell id="rn8qXHYigFgZDkmgaIk9-2" value="服务端请求" style="strokeWidth=2;html=1;shape=mxgraph.flowchart.start_1;whiteSpace=wrap;" parent="1" vertex="1">
          <mxGeometry x="260" y="-2290" width="100" height="60" as="geometry" />
        </mxCell>
        <mxCell id="rn8qXHYigFgZDkmgaIk9-9" style="edgeStyle=orthogonalEdgeStyle;rounded=0;orthogonalLoop=1;jettySize=auto;html=1;exitX=0.5;exitY=1;exitDx=0;exitDy=0;exitPerimeter=0;" parent="1" source="rn8qXHYigFgZDkmgaIk9-6" target="rn8qXHYigFgZDkmgaIk9-8" edge="1">
          <mxGeometry relative="1" as="geometry" />
        </mxCell>
        <mxCell id="rn8qXHYigFgZDkmgaIk9-6" value="非法值判断" style="strokeWidth=2;html=1;shape=mxgraph.flowchart.decision;whiteSpace=wrap;" parent="1" vertex="1">
          <mxGeometry x="260" y="-2190" width="100" height="70" as="geometry" />
        </mxCell>
        <mxCell id="rn8qXHYigFgZDkmgaIk9-16" style="edgeStyle=orthogonalEdgeStyle;rounded=0;orthogonalLoop=1;jettySize=auto;html=1;exitX=0.5;exitY=1;exitDx=0;exitDy=0;" parent="1" source="rn8qXHYigFgZDkmgaIk9-8" target="rn8qXHYigFgZDkmgaIk9-15" edge="1">
          <mxGeometry relative="1" as="geometry" />
        </mxCell>
        <mxCell id="rn8qXHYigFgZDkmgaIk9-8" value="参数处理" style="rounded=1;whiteSpace=wrap;html=1;absoluteArcSize=1;arcSize=14;strokeWidth=2;" parent="1" vertex="1">
          <mxGeometry x="260" y="-2080" width="100" height="50" as="geometry" />
        </mxCell>
        <mxCell id="rn8qXHYigFgZDkmgaIk9-26" style="edgeStyle=orthogonalEdgeStyle;rounded=0;orthogonalLoop=1;jettySize=auto;html=1;exitX=0.5;exitY=1;exitDx=0;exitDy=0;entryX=0.482;entryY=0.43;entryDx=0;entryDy=0;entryPerimeter=0;" parent="1" source="rn8qXHYigFgZDkmgaIk9-11" target="rn8qXHYigFgZDkmgaIk9-24" edge="1">
          <mxGeometry relative="1" as="geometry" />
        </mxCell>
        <mxCell id="rn8qXHYigFgZDkmgaIk9-11" value="结果组装" style="rounded=1;whiteSpace=wrap;html=1;absoluteArcSize=1;arcSize=14;strokeWidth=2;" parent="1" vertex="1">
          <mxGeometry x="260" y="-1690" width="100" height="50" as="geometry" />
        </mxCell>
        <mxCell id="rn8qXHYigFgZDkmgaIk9-23" style="edgeStyle=orthogonalEdgeStyle;rounded=0;orthogonalLoop=1;jettySize=auto;html=1;exitX=0.5;exitY=1;exitDx=0;exitDy=0;" parent="1" source="rn8qXHYigFgZDkmgaIk9-12" target="rn8qXHYigFgZDkmgaIk9-11" edge="1">
          <mxGeometry relative="1" as="geometry" />
        </mxCell>
        <mxCell id="rn8qXHYigFgZDkmgaIk9-12" value="查询特征，并组装表达式" style="rounded=1;whiteSpace=wrap;html=1;absoluteArcSize=1;arcSize=14;strokeWidth=2;" parent="1" vertex="1">
          <mxGeometry x="260" y="-1780" width="100" height="50" as="geometry" />
        </mxCell>
        <mxCell id="rn8qXHYigFgZDkmgaIk9-22" style="edgeStyle=orthogonalEdgeStyle;rounded=0;orthogonalLoop=1;jettySize=auto;html=1;exitX=0.5;exitY=1;exitDx=0;exitDy=0;entryX=0.5;entryY=0;entryDx=0;entryDy=0;" parent="1" source="rn8qXHYigFgZDkmgaIk9-13" target="rn8qXHYigFgZDkmgaIk9-12" edge="1">
          <mxGeometry relative="1" as="geometry" />
        </mxCell>
        <mxCell id="rn8qXHYigFgZDkmgaIk9-13" value="不同 tab 页出眉毛&lt;br&gt;(全职/兼职/实习/发现)" style="rounded=1;whiteSpace=wrap;html=1;absoluteArcSize=1;arcSize=14;strokeWidth=2;" parent="1" vertex="1">
          <mxGeometry x="245" y="-1870" width="130" height="50" as="geometry" />
        </mxCell>
        <mxCell id="rn8qXHYigFgZDkmgaIk9-14" value="现有职场&lt;br&gt;眉毛逻辑" style="rounded=1;whiteSpace=wrap;html=1;absoluteArcSize=1;arcSize=14;strokeWidth=2;" parent="1" vertex="1">
          <mxGeometry x="100" y="-1980" width="100" height="50" as="geometry" />
        </mxCell>
        <mxCell id="rn8qXHYigFgZDkmgaIk9-18" style="edgeStyle=orthogonalEdgeStyle;rounded=0;orthogonalLoop=1;jettySize=auto;html=1;exitX=0;exitY=0.5;exitDx=0;exitDy=0;exitPerimeter=0;entryX=1;entryY=0.5;entryDx=0;entryDy=0;" parent="1" source="rn8qXHYigFgZDkmgaIk9-15" target="rn8qXHYigFgZDkmgaIk9-14" edge="1">
          <mxGeometry relative="1" as="geometry" />
        </mxCell>
        <mxCell id="rn8qXHYigFgZDkmgaIk9-21" style="edgeStyle=orthogonalEdgeStyle;rounded=0;orthogonalLoop=1;jettySize=auto;html=1;exitX=0.5;exitY=1;exitDx=0;exitDy=0;exitPerimeter=0;" parent="1" source="rn8qXHYigFgZDkmgaIk9-15" target="rn8qXHYigFgZDkmgaIk9-13" edge="1">
          <mxGeometry relative="1" as="geometry" />
        </mxCell>
        <mxCell id="rn8qXHYigFgZDkmgaIk9-15" value="是否是学生" style="strokeWidth=2;html=1;shape=mxgraph.flowchart.decision;whiteSpace=wrap;" parent="1" vertex="1">
          <mxGeometry x="260" y="-1990" width="100" height="70" as="geometry" />
        </mxCell>
        <mxCell id="rn8qXHYigFgZDkmgaIk9-24" value="" style="verticalLabelPosition=bottom;verticalAlign=top;html=1;shape=mxgraph.flowchart.or;" parent="1" vertex="1">
          <mxGeometry x="292.5" y="-1600" width="35" height="30" as="geometry" />
        </mxCell>
      </root>
    </mxGraphModel>
  </diagram>
  <diagram id="iaG42FBGbSkZB3_Hxhuz" name="第 2 页">
    <mxGraphModel dx="998" dy="2976" grid="1" gridSize="10" guides="1" tooltips="1" connect="1" arrows="1" fold="1" page="1" pageScale="1" pageWidth="827" pageHeight="1169" math="0" shadow="0">
      <root>
        <mxCell id="0" />
        <mxCell id="1" parent="0" />
        <mxCell id="KzvjG7RjRK50rdsDXrB9-1" style="edgeStyle=orthogonalEdgeStyle;rounded=0;orthogonalLoop=1;jettySize=auto;html=1;exitX=0.5;exitY=1;exitDx=0;exitDy=0;exitPerimeter=0;" edge="1" parent="1" source="KzvjG7RjRK50rdsDXrB9-2" target="KzvjG7RjRK50rdsDXrB9-4">
          <mxGeometry relative="1" as="geometry" />
        </mxCell>
        <mxCell id="KzvjG7RjRK50rdsDXrB9-2" value="服务端请求" style="strokeWidth=2;html=1;shape=mxgraph.flowchart.start_1;whiteSpace=wrap;" vertex="1" parent="1">
          <mxGeometry x="260" y="-2290" width="100" height="60" as="geometry" />
        </mxCell>
        <mxCell id="KzvjG7RjRK50rdsDXrB9-3" style="edgeStyle=orthogonalEdgeStyle;rounded=0;orthogonalLoop=1;jettySize=auto;html=1;exitX=0.5;exitY=1;exitDx=0;exitDy=0;exitPerimeter=0;" edge="1" parent="1" source="KzvjG7RjRK50rdsDXrB9-4" target="KzvjG7RjRK50rdsDXrB9-6">
          <mxGeometry relative="1" as="geometry" />
        </mxCell>
        <mxCell id="KzvjG7RjRK50rdsDXrB9-4" value="非法值判断" style="strokeWidth=2;html=1;shape=mxgraph.flowchart.decision;whiteSpace=wrap;" vertex="1" parent="1">
          <mxGeometry x="260" y="-2190" width="100" height="70" as="geometry" />
        </mxCell>
        <mxCell id="KzvjG7RjRK50rdsDXrB9-5" style="edgeStyle=orthogonalEdgeStyle;rounded=0;orthogonalLoop=1;jettySize=auto;html=1;exitX=0.5;exitY=1;exitDx=0;exitDy=0;" edge="1" parent="1" source="KzvjG7RjRK50rdsDXrB9-6" target="KzvjG7RjRK50rdsDXrB9-16">
          <mxGeometry relative="1" as="geometry" />
        </mxCell>
        <mxCell id="KzvjG7RjRK50rdsDXrB9-6" value="参数处理" style="rounded=1;whiteSpace=wrap;html=1;absoluteArcSize=1;arcSize=14;strokeWidth=2;" vertex="1" parent="1">
          <mxGeometry x="260" y="-2080" width="100" height="50" as="geometry" />
        </mxCell>
        <mxCell id="KzvjG7RjRK50rdsDXrB9-7" style="edgeStyle=orthogonalEdgeStyle;rounded=0;orthogonalLoop=1;jettySize=auto;html=1;exitX=0.5;exitY=1;exitDx=0;exitDy=0;entryX=0.482;entryY=0.43;entryDx=0;entryDy=0;entryPerimeter=0;" edge="1" parent="1" source="KzvjG7RjRK50rdsDXrB9-8" target="KzvjG7RjRK50rdsDXrB9-17">
          <mxGeometry relative="1" as="geometry" />
        </mxCell>
        <mxCell id="KzvjG7RjRK50rdsDXrB9-8" value="结果组装" style="rounded=1;whiteSpace=wrap;html=1;absoluteArcSize=1;arcSize=14;strokeWidth=2;" vertex="1" parent="1">
          <mxGeometry x="260" y="-1690" width="100" height="50" as="geometry" />
        </mxCell>
        <mxCell id="KzvjG7RjRK50rdsDXrB9-9" style="edgeStyle=orthogonalEdgeStyle;rounded=0;orthogonalLoop=1;jettySize=auto;html=1;exitX=0.5;exitY=1;exitDx=0;exitDy=0;" edge="1" parent="1" source="KzvjG7RjRK50rdsDXrB9-10" target="KzvjG7RjRK50rdsDXrB9-8">
          <mxGeometry relative="1" as="geometry" />
        </mxCell>
        <mxCell id="KzvjG7RjRK50rdsDXrB9-10" value="查询特征，并组装表达式" style="rounded=1;whiteSpace=wrap;html=1;absoluteArcSize=1;arcSize=14;strokeWidth=2;" vertex="1" parent="1">
          <mxGeometry x="260" y="-1780" width="100" height="50" as="geometry" />
        </mxCell>
        <mxCell id="KzvjG7RjRK50rdsDXrB9-11" style="edgeStyle=orthogonalEdgeStyle;rounded=0;orthogonalLoop=1;jettySize=auto;html=1;exitX=0.5;exitY=1;exitDx=0;exitDy=0;entryX=0.5;entryY=0;entryDx=0;entryDy=0;" edge="1" parent="1" source="KzvjG7RjRK50rdsDXrB9-12" target="KzvjG7RjRK50rdsDXrB9-10">
          <mxGeometry relative="1" as="geometry" />
        </mxCell>
        <mxCell id="KzvjG7RjRK50rdsDXrB9-12" value="不同 tab 页出眉毛&lt;br&gt;(全职/兼职/实习/发现)" style="rounded=1;whiteSpace=wrap;html=1;absoluteArcSize=1;arcSize=14;strokeWidth=2;" vertex="1" parent="1">
          <mxGeometry x="245" y="-1870" width="130" height="50" as="geometry" />
        </mxCell>
        <mxCell id="KzvjG7RjRK50rdsDXrB9-13" value="现有职场&lt;br&gt;眉毛逻辑" style="rounded=1;whiteSpace=wrap;html=1;absoluteArcSize=1;arcSize=14;strokeWidth=2;" vertex="1" parent="1">
          <mxGeometry x="100" y="-1980" width="100" height="50" as="geometry" />
        </mxCell>
        <mxCell id="KzvjG7RjRK50rdsDXrB9-14" style="edgeStyle=orthogonalEdgeStyle;rounded=0;orthogonalLoop=1;jettySize=auto;html=1;exitX=0;exitY=0.5;exitDx=0;exitDy=0;exitPerimeter=0;entryX=1;entryY=0.5;entryDx=0;entryDy=0;" edge="1" parent="1" source="KzvjG7RjRK50rdsDXrB9-16" target="KzvjG7RjRK50rdsDXrB9-13">
          <mxGeometry relative="1" as="geometry" />
        </mxCell>
        <mxCell id="KzvjG7RjRK50rdsDXrB9-15" style="edgeStyle=orthogonalEdgeStyle;rounded=0;orthogonalLoop=1;jettySize=auto;html=1;exitX=0.5;exitY=1;exitDx=0;exitDy=0;exitPerimeter=0;" edge="1" parent="1" source="KzvjG7RjRK50rdsDXrB9-16" target="KzvjG7RjRK50rdsDXrB9-12">
          <mxGeometry relative="1" as="geometry" />
        </mxCell>
        <mxCell id="KzvjG7RjRK50rdsDXrB9-16" value="是否是学生" style="strokeWidth=2;html=1;shape=mxgraph.flowchart.decision;whiteSpace=wrap;" vertex="1" parent="1">
          <mxGeometry x="260" y="-1990" width="100" height="70" as="geometry" />
        </mxCell>
        <mxCell id="KzvjG7RjRK50rdsDXrB9-17" value="" style="verticalLabelPosition=bottom;verticalAlign=top;html=1;shape=mxgraph.flowchart.or;" vertex="1" parent="1">
          <mxGeometry x="292.5" y="-1600" width="35" height="30" as="geometry" />
        </mxCell>
      </root>
    </mxGraphModel>
  </diagram>
</mxfile>
